<?xml version="1.0" encoding="utf-8"?>
<!-- Generator: Adobe Illustrator 25.4.1, SVG Export Plug-In . SVG Version: 6.00 Build 0)  -->
<svg version="1.1" id="Layer_1" xmlns="http://www.w3.org/2000/svg" xmlns:xlink="http://www.w3.org/1999/xlink" x="0px" y="0px"
	 viewBox="0 0 1000 1000" style="enable-background:new 0 0 1000 1000;" xml:space="preserve">
<style type="text/css">
	.st0{fill:#B28DC0;}
	.st1{fill:#DA5D80;}
	.st2{fill:none;stroke:#1D1D1B;stroke-width:15.0791;stroke-linecap:round;stroke-linejoin:round;stroke-miterlimit:10;}
	.st3{fill:none;stroke:#1D1D1B;stroke-width:10.5362;stroke-linecap:round;stroke-linejoin:round;stroke-miterlimit:10;}
	.st4{fill:#1D1D1B;}
	.st5{fill:#FFFFFF;}
	.st6{fill:#35A8E0;}
	.st7{fill:none;stroke:#1D1D1B;stroke-width:17.0539;stroke-linecap:round;stroke-linejoin:round;stroke-miterlimit:10;}
	.st8{fill:#00C3B9;}
	.st9{fill:#FFEFE1;}
	.st10{fill:#7BA2FF;}
	.st11{opacity:0.25;}
	.st12{fill:#000072;}
	.st13{opacity:0.7;}
	.st14{opacity:0.5;}
	.st15{opacity:0.25;fill:#000072;}
	.st16{fill:#E6E7E8;}
	.st17{fill:url(#SVGID_1_);}
	.st18{fill:url(#SVGID_00000021112954159009699430000007437860010032949912_);}
	.st19{fill:url(#SVGID_00000172408225996104091910000007852326980079250338_);}
	.st20{fill:url(#SVGID_00000003072218370942812810000014060413387968545214_);}
	.st21{fill:url(#SVGID_00000172417851062074428390000017559506229698287277_);}
	.st22{fill:url(#SVGID_00000060709181219016406750000006235214369934698656_);}
	.st23{fill:url(#SVGID_00000007425552117492312150000010900839133595888808_);}
	.st24{fill:url(#SVGID_00000150780541864124205850000003911591056282123186_);}
	.st25{fill:url(#SVGID_00000056385667693351277670000012159799477260444069_);}
	.st26{fill:url(#SVGID_00000092427858051536235690000006070612714262862498_);}
	.st27{fill:url(#SVGID_00000051366220766850448760000011195219798373893515_);}
	.st28{fill:url(#SVGID_00000089563353276052673360000010715410003403660673_);}
	.st29{fill:url(#SVGID_00000103947912124288797260000005568457705064506285_);}
	.st30{fill:url(#SVGID_00000137848964311843889930000005208940986162190219_);}
	.st31{fill:url(#SVGID_00000101799032768204399830000009926833404601047960_);}
	.st32{fill:url(#SVGID_00000180342124148372174950000010165828422821040282_);}
	.st33{fill:url(#SVGID_00000048499871967073381400000007942850578248315545_);}
	.st34{fill:url(#SVGID_00000112598888319610039090000000160241863288682145_);}
	.st35{fill:#CDCDB9;}
	.st36{fill:#E4E3D0;}
	.st37{fill:url(#SVGID_00000028316617123030940390000017709760646197015446_);}
	.st38{fill:url(#SVGID_00000127749165953382671020000011172976215560371122_);}
	.st39{fill:url(#SVGID_00000127736540594460117250000006237740539338770083_);}
	.st40{fill:url(#SVGID_00000057846649603677479290000004179878578052081549_);}
	.st41{fill:url(#SVGID_00000000901026212744285450000009714410326770053010_);}
	.st42{fill:#505050;}
	.st43{fill:#333333;}
	.st44{opacity:0.7;fill:#505050;}
	.st45{fill:#6C6C6C;}
	.st46{fill:#A6A6A6;}
	.st47{fill:#5C5C5C;}
	.st48{fill:#F22F26;}
	.st49{fill:#A6201A;}
	.st50{opacity:0.4;fill:#849092;}
	.st51{fill:#849092;}
	.st52{fill:#C7CBB2;}
	.st53{fill:#FFCB00;}
	.st54{fill:#FFFD3B;}
	.st55{fill:#F5FD2B;}
	.st56{fill:#C6C6C6;}
	.st57{fill:#EAC307;}
	.st58{fill:#FFD800;}
	.st59{fill:none;stroke:#1D1D1B;stroke-width:8.4098;stroke-linecap:round;stroke-linejoin:round;stroke-miterlimit:10;}
	.st60{fill:none;stroke:#1D1D1B;stroke-width:12.1024;stroke-linecap:round;stroke-linejoin:round;stroke-miterlimit:10;}
	.st61{fill:#72CCDB;}
	.st62{fill:none;stroke:#1D1D1B;stroke-width:8.4619;stroke-linecap:round;stroke-linejoin:round;stroke-miterlimit:10;}
	.st63{fill:none;stroke:#1D1D1B;stroke-width:7.436;stroke-linecap:round;stroke-linejoin:round;stroke-miterlimit:10;}
	.st64{fill:#EF439D;}
	.st65{fill:#ED1C24;}
</style>
<g>
	<path class="st64" d="M787.3,459c-0.5-58.4-22.8-115.1-57.8-162.9l-0.1,0.1c24.5-20,42.4-45.5,42.4-76.5c0-21.8-8.2-42.5-21.6-60.3
		C732,189,701.6,210,667.7,223.2c13.9-16.2,23.1-35.2,23.1-54.7c0-21.8-9.8-43.2-24.1-61.3c-28.4,33.2-68.6,53.9-111.3,67.5
		c-2-0.7-2.1-0.7-5.6-1.7l5.6,1.7c-2.4,0.8-4.8,1.5-7.2,2.2c13.8-31,1.8-66.5-20.6-92.3c-26.7,35-64.3,60.7-104.8,81
		c-83.8,12.8-161.4,58.9-213.1,125.2c-13,16.7-24.4,34.6-33.9,53.6c-30.4,50.6-35.7,111.1-19.9,169c13.2,50,39.5,94.7,84.2,126.3
		c31.6,23.7,63.2,39.5,100,50c34.2,10.5,68.4,13.2,102.6,18.4C598.1,726.6,792.8,634.5,787.3,459z"/>
	<path class="st64" d="M403.4,655.6c-40.7,0,26.5,137.1-63.4,195.9c-0.9,0.9-8.1,4.1-8.8,13.4c-1.4,17,3.2,24.1,54,24.1
		c48.7,0,60-13.9,60-84.5c0-48.7-11.1-96.1-20.7-146.4c0-1.9-6.6-3.7-13.2-3.7C408.5,654.5,405.7,654.8,403.4,655.6z"/>
	<path class="st64" d="M519.2,652.9c-21.6,49.9-46.4,110.4-46.4,166c0,40.5,17.2,98.6,58.5,98.6c22.7,0,49.5-8.7,49.5-31.3
		c0-4.6-0.7-6.2-3.7-9.6c-43.3-41.5-58.1-87.8-58.1-139.2c0-23.6,3.1-48.3,8.1-74C527.1,660.8,519.2,658.2,519.2,652.9z"/>
	<path class="st64" d="M226.8,530.4c-49.5,30-81.2,82-81.2,138.7c0,32,8.3,42.9,8.3,56.2c0,24.9-21.2,50.4-68.3,50.4
		c-50.1,0-75.2-40.6-75.2-74.8c0-127.5,197.7-188.4,212.9-188.4c8.3,0,19.9,2.5,19.9,10.8c0,5.8-6.1,7.1-11.7,7.1
		C229.9,530.5,228.3,530.4,226.8,530.4z"/>
	<path class="st64" d="M800.9,611.6c112.2,0,180.8-92.5,180.8-170.7c0-46.2-32.2-77.8-78.7-77.8c-36.8,0-61.5,25.7-61.5,56.7
		c0,31.4,21.8,39,21.8,49.5c0,14.7-10.3,48.7-52.2,48.7c-18.2,0-39.9-5.1-55.2-18.6L725,600.7C750,607.2,775.5,611.6,800.9,611.6z"
		/>
	<g>
		<g>
			<path class="st4" d="M376.5,426.2c0,55-23.4,99.6-52.3,99.6c-28.9,0-52.3-44.6-52.3-99.6s23.4-99.6,52.3-99.6
				C353.1,326.6,376.5,371.2,376.5,426.2z"/>
			<path class="st5" d="M364.7,388.1c0,23.7-9.8,42.9-21.9,42.9c-12.1,0-21.9-19.2-21.9-42.9c0-23.7,9.8-42.9,21.9-42.9
				C354.9,345.2,364.7,364.4,364.7,388.1z"/>
			<path class="st5" d="M312.5,415.5c0,8.6-3.6,15.5-7.9,15.5c-4.4,0-7.9-6.9-7.9-15.5c0-8.6,3.6-15.5,7.9-15.5
				C309,399.9,312.5,406.9,312.5,415.5z"/>
			<path class="st5" d="M336.7,453.2c0,8.6-3.6,15.5-7.9,15.5c-4.4,0-7.9-6.9-7.9-15.5c0-8.6,3.6-15.5,7.9-15.5
				C333.1,437.7,336.7,444.7,336.7,453.2z"/>
			<path class="st4" d="M724.7,426.2c0,55-23.4,99.6-52.3,99.6c-28.9,0-52.3-44.6-52.3-99.6s23.4-99.6,52.3-99.6
				C701.3,326.6,724.7,371.2,724.7,426.2z"/>
			<path class="st5" d="M712.9,388.1c0,23.7-9.8,42.9-21.9,42.9c-12.1,0-21.9-19.2-21.9-42.9c0-23.7,9.8-42.9,21.9-42.9
				C703.1,345.2,712.9,364.4,712.9,388.1z"/>
			<path class="st5" d="M660.8,415.5c0,8.6-3.6,15.5-7.9,15.5c-4.4,0-7.9-6.9-7.9-15.5c0-8.6,3.6-15.5,7.9-15.5
				C657.2,399.9,660.8,406.9,660.8,415.5z"/>
			<path class="st5" d="M684.9,453.2c0,8.6-3.6,15.5-7.9,15.5c-4.4,0-7.9-6.9-7.9-15.5c0-8.6,3.6-15.5,7.9-15.5
				C681.3,437.7,684.9,444.7,684.9,453.2z"/>
		</g>
		<g>
			<path class="st65" d="M342.8,530.7c0,10.6-19.6,19.3-43.9,19.3c-24.2,0-43.9-8.6-43.9-19.3c0-10.6,19.6-19.3,43.9-19.3
				C323.1,511.4,342.8,520,342.8,530.7z"/>
			<path class="st65" d="M741.6,530.7c0,10.6-19.7,19.3-43.9,19.3c-24.2,0-43.9-8.6-43.9-19.3c0-10.6,19.6-19.3,43.9-19.3
				C721.9,511.4,741.6,520,741.6,530.7z"/>
		</g>
		<path class="st3" d="M304.2,302.9c0,0,15.8,41.4,58.5,27.3"/>
		<path class="st3" d="M688.7,302.9c0,0-15.8,41.4-58.5,27.3"/>
		<g>
			<g>
				<g>
					<path class="st5" d="M571.4,605.7c-7.6,0-16.6-2.1-27.1-4.5c-13.4-3.1-28.5-6.6-44.7-6.6s-31.3,3.5-44.7,6.6
						c-10.4,2.4-19.4,4.5-27.1,4.5c-15.9,0-23.6-9.3-23.6-28.3c0-45.8,42.8-83.1,95.4-83.1c52.6,0,95.4,37.3,95.4,83.1
						C595.1,596.4,587.3,605.7,571.4,605.7z"/>
					<path class="st4" d="M499.7,500.1c49.4,0,89.5,34.6,89.5,77.2c0,17.3-6.6,22.4-17.7,22.4c-16.3,0-42.4-11-71.7-11
						s-55.4,11-71.7,11c-11.1,0-17.7-5.1-17.7-22.4C410.2,534.7,450.3,500.1,499.7,500.1 M499.7,488.3c-55.8,0-101.3,39.9-101.3,89
						c0,29.8,18.5,34.3,29.5,34.3c8.3,0,17.6-2.1,28.4-4.6c13.1-3,27.9-6.4,43.4-6.4c15.5,0,30.3,3.4,43.4,6.4
						c10.8,2.5,20.1,4.6,28.4,4.6c11,0,29.5-4.4,29.5-34.3C601,528.3,555.5,488.3,499.7,488.3L499.7,488.3z"/>
				</g>
			</g>
			<path class="st4" d="M591.1,584.5c0.3-1.5-7.6-8.6-8.7-9.7c-4-3.9-8.4-7.4-13.2-10.2c-3.5-2.1-7.2-3.8-11-5.3
				c-2.4-1-5.2-2-7.3-3.1c14.3-1.2,29.3,1.7,42,8.4C595.1,565.9,591.1,584.5,591.1,584.5z"/>
			<path class="st4" d="M409.1,584.5c-0.3-1.5,7.6-8.6,8.7-9.7c4-3.9,8.4-7.4,13.2-10.2c3.5-2.1,7.2-3.8,11-5.3c2.4-1,5.2-2,7.4-3.1
				c-14.3-1.2-29.3,1.7-42,8.4C405.1,565.9,409.1,584.5,409.1,584.5z"/>
			<g>
				<path class="st4" d="M533.5,551c0,0-0.6,0.2-1.6,0.3c-1,0.2-2.4,0.4-4,0.6c-1.7,0.2-3.6,0.3-5.6,0.4c-2.1,0-4.2,0.1-6.4,0.1
					c-1.1-0.1-2.2,0-3.2-0.1c-1.1,0-2.1-0.1-3.1-0.2c-2-0.1-3.9-0.2-5.6-0.5c-0.8-0.1-1.6-0.1-2.2-0.2c-0.7-0.1-1.3-0.2-1.8-0.2
					c-1-0.1-1.6-0.3-1.6-0.3s0.5-0.3,1.4-0.7c0.5-0.2,1-0.5,1.7-0.7c0.7-0.2,1.4-0.6,2.2-0.8c1.6-0.4,3.6-0.8,5.7-1.1
					c2.1-0.2,4.3-0.3,6.6-0.3c2.2,0.1,4.5,0.2,6.5,0.5c2.1,0.3,4,0.7,5.6,1.1c1.6,0.4,3,0.9,3.9,1.3
					C532.9,550.8,533.5,551,533.5,551z"/>
			</g>
		</g>
	</g>
</g>
</svg>
