<?xml version="1.0" encoding="utf-8"?>
<!-- Generator: Adobe Illustrator 25.4.1, SVG Export Plug-In . SVG Version: 6.00 Build 0)  -->
<svg version="1.1" id="Layer_1" xmlns="http://www.w3.org/2000/svg" xmlns:xlink="http://www.w3.org/1999/xlink" x="0px" y="0px"
	 viewBox="0 0 1000 1000" style="enable-background:new 0 0 1000 1000;" xml:space="preserve">
<style type="text/css">
	.st0{fill:#B28DC0;}
	.st1{fill:#DA5D80;}
	.st2{fill:none;stroke:#1D1D1B;stroke-width:15.0791;stroke-linecap:round;stroke-linejoin:round;stroke-miterlimit:10;}
	.st3{fill:none;stroke:#1D1D1B;stroke-width:10.5362;stroke-linecap:round;stroke-linejoin:round;stroke-miterlimit:10;}
	.st4{fill:#1D1D1B;}
	.st5{fill:#FFFFFF;}
	.st6{fill:#35A8E0;}
	.st7{fill:none;stroke:#1D1D1B;stroke-width:17.0539;stroke-linecap:round;stroke-linejoin:round;stroke-miterlimit:10;}
	.st8{fill:#00C3B9;}
	.st9{fill:#FFEFE1;}
	.st10{fill:#7BA2FF;}
	.st11{opacity:0.25;}
	.st12{fill:#000072;}
	.st13{opacity:0.7;}
	.st14{opacity:0.5;}
	.st15{opacity:0.25;fill:#000072;}
	.st16{fill:#E6E7E8;}
	.st17{fill:url(#SVGID_1_);}
	.st18{fill:url(#SVGID_00000134233945670833059250000012647371854445518760_);}
	.st19{fill:url(#SVGID_00000039115467746025983000000009416794365941907078_);}
	.st20{fill:url(#SVGID_00000173861185171474619450000009793408877000290739_);}
	.st21{fill:url(#SVGID_00000147936887581775250890000014969627154186707360_);}
	.st22{fill:url(#SVGID_00000104686621502881491040000005340117712528732826_);}
	.st23{fill:url(#SVGID_00000149370218977971333420000005050373655786343321_);}
	.st24{fill:url(#SVGID_00000004518532526026672760000006538599429743991456_);}
	.st25{fill:url(#SVGID_00000105415334040239666090000012441683796565236374_);}
	.st26{fill:url(#SVGID_00000142173131376924447420000008321688219995009937_);}
	.st27{fill:url(#SVGID_00000035495492243632721700000014087299253980126399_);}
	.st28{fill:url(#SVGID_00000060711746021988906000000015431479768926988687_);}
	.st29{fill:url(#SVGID_00000021116956057482317500000008951409852824814473_);}
	.st30{fill:url(#SVGID_00000083061997085275034470000008398757276023615127_);}
	.st31{fill:url(#SVGID_00000039106281691236965130000006601011579217519284_);}
	.st32{fill:url(#SVGID_00000101809196693110289540000005326403876501264313_);}
	.st33{fill:url(#SVGID_00000117657684002726970830000004655734151216380063_);}
	.st34{fill:url(#SVGID_00000075126316956897585680000017499498116160840627_);}
	.st35{fill:#CDCDB9;}
	.st36{fill:#E4E3D0;}
	.st37{fill:url(#SVGID_00000103947603385658300050000010059495831140390330_);}
	.st38{fill:url(#SVGID_00000089558532615804613060000015128758332093110926_);}
	.st39{fill:url(#SVGID_00000138537277136926450750000017886949531034268294_);}
	.st40{fill:url(#SVGID_00000138559957441120249070000014732176501626309256_);}
	.st41{fill:url(#SVGID_00000047036972803892418580000014799981626696382383_);}
	.st42{fill:#505050;}
	.st43{fill:#333333;}
	.st44{opacity:0.7;fill:#505050;}
	.st45{fill:#6C6C6C;}
	.st46{fill:#A6A6A6;}
	.st47{fill:#5C5C5C;}
	.st48{fill:#F22F26;}
	.st49{fill:#A6201A;}
	.st50{opacity:0.4;fill:#849092;}
	.st51{fill:#849092;}
	.st52{fill:#C7CBB2;}
	.st53{fill:#FFCB00;}
	.st54{fill:#FFFD3B;}
	.st55{fill:#F5FD2B;}
	.st56{fill:#C6C6C6;}
	.st57{fill:#EAC307;}
	.st58{fill:#FFD800;}
	.st59{fill:none;stroke:#1D1D1B;stroke-width:8.4098;stroke-linecap:round;stroke-linejoin:round;stroke-miterlimit:10;}
	.st60{fill:none;stroke:#1D1D1B;stroke-width:12.1024;stroke-linecap:round;stroke-linejoin:round;stroke-miterlimit:10;}
	.st61{fill:#72CCDB;}
	.st62{fill:none;stroke:#1D1D1B;stroke-width:8.4619;stroke-linecap:round;stroke-linejoin:round;stroke-miterlimit:10;}
	.st63{fill:none;stroke:#1D1D1B;stroke-width:7.436;stroke-linecap:round;stroke-linejoin:round;stroke-miterlimit:10;}
	.st64{fill:#EF439D;}
	.st65{fill:#ED1C24;}
</style>
<g>
	<g>
		<path class="st57" d="M331.2,534.3c-51.4,15.7-110.3,66.5-110.3,150c0,30.9,7.3,70.7,7.3,90.2c0,45.2-47.3,72.2-90,72.2
			c-58.5,0-76.4-54.9-76.4-91.5c0-105.9,157.2-254.9,236.8-254.9c17,0,45,5.1,45,22.2c0,5.5-2.5,10.7-8.6,12.6
			C333.3,535,332.6,535,331.2,534.3z"/>
		<path class="st57" d="M704.4,463.3c157.9,24.4,226,231,226,268.1c0,44.5-38.1,84.4-97.2,84.4c-35.8,0-61.8-34.6-61.8-53.4
			c0-15.2,27.6-70,27.6-110.1c0-83.6-95-94.6-95-180.2C704,469.1,704.1,466.2,704.4,463.3z"/>
		<path class="st58" d="M781.5,451.9c6.8,167.8-157.1,284.9-318.1,261.5c-23.4-2.9-43.9-8.8-64.4-17.6
			c-14.6-8.8-29.3-14.6-43.9-23.4c-32.2-20.5-49.8-49.8-70.3-82c-14.6-23.4-23.4-49.8-26.3-76.1c-5.9-43.9-5.9-87.8,3.5-132.5
			c4.7-22.7,11.7-44.8,20.5-66C353.2,145.9,547.1,28.4,729.8,40.1c23.4,0,38.1,26.3,41,49.8c0,93.7-26.3,187.4,2.4,279.8
			C778.3,396.9,781.5,424.1,781.5,451.9z"/>
		<path class="st58" d="M412.6,664.6c0.7,19.2,1.8,39.5,1.8,60c0,61.9-9.9,124.9-69.1,159.6c-10.8,6.3-20.7,16.5-20.7,28.8
			c0,24.3,60.4,29.5,84.3,29.5c49.1,0,112.5-5.4,112.5-52.6c0-31.1-48.1-27.5-48.1-111.2c0-35.1,10.3-83.1,10.3-101.2
			c0-21.1-21.4-30.4-40-30.4c-16.5,0-32.5,8.2-32.5,14.9C411.1,662.9,411.5,663.8,412.6,664.6z"/>
		<path class="st58" d="M627.6,685.1c-0.7,19.2-1.8,39.5-1.8,60c0,61.9,9.9,124.9,69.1,159.6c10.8,6.3,20.7,16.5,20.7,28.8
			c0,24.3-60.4,29.5-84.3,29.5c-49.1,0-112.5-5.4-112.5-52.6c0-31.1,48.1-27.5,48.1-111.2c0-35.1-10.3-83.1-10.3-101.2
			c0-21.1,21.4-30.4,40-30.4c16.5,0,32.5,8.2,32.5,14.9C629.2,683.4,628.8,684.3,627.6,685.1z"/>
	</g>
	<g>
		<g>
			<path class="st4" d="M424.2,429.3c0,43.9-18.7,79.5-41.8,79.5c-23.1,0-41.8-35.6-41.8-79.5c0-43.9,18.7-79.5,41.8-79.5
				C405.5,349.8,424.2,385.4,424.2,429.3z"/>
			<path class="st5" d="M414.8,398.9c0,18.9-7.8,34.2-17.5,34.2c-9.7,0-17.5-15.3-17.5-34.2c0-18.9,7.8-34.2,17.5-34.2
				C406.9,364.7,414.8,380,414.8,398.9z"/>
			<path class="st5" d="M373.2,420.7c0,6.8-2.8,12.4-6.3,12.4c-3.5,0-6.3-5.5-6.3-12.4c0-6.8,2.8-12.4,6.3-12.4
				C370.3,408.4,373.2,413.9,373.2,420.7z"/>
			<path class="st5" d="M392.4,450.9c0,6.8-2.8,12.4-6.3,12.4c-3.5,0-6.3-5.5-6.3-12.4c0-6.8,2.8-12.4,6.3-12.4
				C389.6,438.5,392.4,444,392.4,450.9z"/>
			<path class="st4" d="M702.2,429.3c0,43.9-18.7,79.5-41.8,79.5c-23.1,0-41.8-35.6-41.8-79.5c0-43.9,18.7-79.5,41.8-79.5
				C683.5,349.8,702.2,385.4,702.2,429.3z"/>
			<path class="st5" d="M692.7,398.9c0,18.9-7.8,34.2-17.5,34.2c-9.7,0-17.5-15.3-17.5-34.2c0-18.9,7.8-34.2,17.5-34.2
				C684.9,364.7,692.7,380,692.7,398.9z"/>
			<path class="st5" d="M651.1,420.7c0,6.8-2.8,12.4-6.3,12.4c-3.5,0-6.3-5.5-6.3-12.4c0-6.8,2.8-12.4,6.3-12.4
				C648.3,408.4,651.1,413.9,651.1,420.7z"/>
			<path class="st5" d="M670.4,450.9c0,6.8-2.8,12.4-6.3,12.4s-6.3-5.5-6.3-12.4c0-6.8,2.8-12.4,6.3-12.4S670.4,444,670.4,450.9z"/>
		</g>
		<g>
			<path class="st1" d="M397.3,518.3c0,8.5-15.7,15.4-35,15.4c-19.3,0-35-6.9-35-15.4c0-8.5,15.7-15.4,35-15.4
				C381.6,502.9,397.3,509.8,397.3,518.3z"/>
			<path class="st1" d="M715.6,518.3c0,8.5-15.7,15.4-35,15.4c-19.3,0-35-6.9-35-15.4c0-8.5,15.7-15.4,35-15.4
				C699.9,502.9,715.6,509.8,715.6,518.3z"/>
		</g>
		<g>
			<path class="st59" d="M379.3,307.8c0,0-34.6-7-43.4,27.8"/>
			<path class="st59" d="M686.7,332.8c0,0-19.5,29.5-50.3,11"/>
		</g>
		<path class="st60" d="M458.1,555.5c0,0,13.3-19.5,39.1-12c13.7,4,23.8,24.2,45.1,24.2c33.9,0,42.5-28.6,42.5-28.6"/>
	</g>
</g>
</svg>
