<?xml version="1.0" encoding="utf-8"?>
<!-- Generator: Adobe Illustrator 25.4.1, SVG Export Plug-In . SVG Version: 6.00 Build 0)  -->
<svg version="1.1" id="Layer_1" xmlns="http://www.w3.org/2000/svg" xmlns:xlink="http://www.w3.org/1999/xlink" x="0px" y="0px"
	 viewBox="0 0 1000 1000" style="enable-background:new 0 0 1000 1000;" xml:space="preserve">
<style type="text/css">
	.st0{fill:#B28DC0;}
	.st1{fill:#DA5D80;}
	.st2{fill:none;stroke:#1D1D1B;stroke-width:15.0791;stroke-linecap:round;stroke-linejoin:round;stroke-miterlimit:10;}
	.st3{fill:none;stroke:#1D1D1B;stroke-width:10.5362;stroke-linecap:round;stroke-linejoin:round;stroke-miterlimit:10;}
	.st4{fill:#1D1D1B;}
	.st5{fill:#FFFFFF;}
	.st6{fill:#35A8E0;}
	.st7{fill:none;stroke:#1D1D1B;stroke-width:17.0539;stroke-linecap:round;stroke-linejoin:round;stroke-miterlimit:10;}
	.st8{fill:#00C3B9;}
	.st9{fill:#FFEFE1;}
	.st10{fill:#7BA2FF;}
	.st11{opacity:0.25;}
	.st12{fill:#000072;}
	.st13{opacity:0.7;}
	.st14{opacity:0.5;}
	.st15{opacity:0.25;fill:#000072;}
	.st16{fill:#E6E7E8;}
	.st17{fill:url(#SVGID_1_);}
	.st18{fill:url(#SVGID_00000013156106795672362370000014432051814719461769_);}
	.st19{fill:url(#SVGID_00000065046358714897591040000006720496330124027561_);}
	.st20{fill:url(#SVGID_00000181058755861844111370000016538340803459011226_);}
	.st21{fill:url(#SVGID_00000088126844929737972550000009718831961036747702_);}
	.st22{fill:url(#SVGID_00000165913007619859290040000011309903950882899121_);}
	.st23{fill:url(#SVGID_00000138540724137118353820000002123724449472576939_);}
	.st24{fill:url(#SVGID_00000094594371862355036550000005404100212418712219_);}
	.st25{fill:url(#SVGID_00000084507332688757869100000000748907773695316626_);}
	.st26{fill:url(#SVGID_00000000201575118817927710000010266197877650128275_);}
	.st27{fill:url(#SVGID_00000026155848927571731210000000354995196423897262_);}
	.st28{fill:url(#SVGID_00000115478505044326373600000004879968743582271654_);}
	.st29{fill:url(#SVGID_00000071552781035107590480000012447548471738798011_);}
	.st30{fill:url(#SVGID_00000008836120899940374620000007786572266659914911_);}
	.st31{fill:url(#SVGID_00000099650817105751890130000010979559404744336039_);}
	.st32{fill:url(#SVGID_00000158009842707973624840000001230840274871921572_);}
	.st33{fill:url(#SVGID_00000115510952054924570370000007947799466061775012_);}
	.st34{fill:url(#SVGID_00000137114772621478495300000007853288178323063945_);}
	.st35{fill:#CDCDB9;}
	.st36{fill:#E4E3D0;}
	.st37{fill:url(#SVGID_00000003812082569761823620000011202679010273821354_);}
	.st38{fill:url(#SVGID_00000140709180941559549230000004944006775937826976_);}
	.st39{fill:url(#SVGID_00000086663687862163704010000013079836636078361780_);}
	.st40{fill:url(#SVGID_00000183222756192090211710000004774718270936341175_);}
	.st41{fill:url(#SVGID_00000064352141772691571110000002563852844963362184_);}
	.st42{fill:#505050;}
	.st43{fill:#333333;}
	.st44{opacity:0.7;fill:#505050;}
	.st45{fill:#6C6C6C;}
	.st46{fill:#A6A6A6;}
	.st47{fill:#5C5C5C;}
	.st48{fill:#F22F26;}
	.st49{fill:#A6201A;}
	.st50{opacity:0.4;fill:#849092;}
	.st51{fill:#849092;}
	.st52{fill:#C7CBB2;}
	.st53{fill:#FFCB00;}
	.st54{fill:#FFFD3B;}
	.st55{fill:#F5FD2B;}
	.st56{fill:#C6C6C6;}
	.st57{fill:#EAC307;}
	.st58{fill:#FFD800;}
	.st59{fill:none;stroke:#1D1D1B;stroke-width:8.4098;stroke-linecap:round;stroke-linejoin:round;stroke-miterlimit:10;}
	.st60{fill:none;stroke:#1D1D1B;stroke-width:12.1024;stroke-linecap:round;stroke-linejoin:round;stroke-miterlimit:10;}
	.st61{fill:#72CCDB;}
	.st62{fill:none;stroke:#1D1D1B;stroke-width:8.4619;stroke-linecap:round;stroke-linejoin:round;stroke-miterlimit:10;}
	.st63{fill:none;stroke:#1D1D1B;stroke-width:7.436;stroke-linecap:round;stroke-linejoin:round;stroke-miterlimit:10;}
	.st64{fill:#EF439D;}
	.st65{fill:#ED1C24;}
</style>
<g>
	<path class="st61" d="M542.7,108.1c10-53.6,50.6-101.2,106.5-105.4c24.1-1.8,37.5,1,39.2,23.7c2.3,31.4-39.5,58.1-37.3,87.4
		c0.3,4.5,9.3,4.6,12.6,4.4c34.3-2.6,24-49.3,73.6-53c16.3-1.2,30.5,2.9,32.5,29.7c2.2,28.9-65,48.4-62.7,80.1
		c0.4,5.6,8.8,8.2,14.1,7.8c12.1-0.9,35.4-28.3,62.8-30.4c20.3-1.5,22.5,6.6,23.3,17.1c3.4,45.9-95.5,49.8-92.1,94.9
		c0.6,8.5,4.4,8.8,8.9,8.5c20-1.5,41.9-27.3,79.3-30.1c4.7-0.3,18-3.1,19.4,16.5c1.8,24-66.8,49.5-60.8,82.9
		c6.4,35.3-33.6,66.2-20.2,65.2c28.5-2.1-54.1,14-53.4,23c1.1,14.6-209.8-108.4-226.5-212.1C453.2,164.4,600.9,110.8,542.7,108.1z"
		/>
	<path class="st61" d="M546.7,128.8c-3.1-54.4-37.4-106.8-92.3-118c-23.7-4.8-37.3-3.7-41.9,18.6c-6.3,30.8,31.9,62.6,26,91.4
		c-0.9,4.5-9.8,3.4-13.1,2.8c-33.7-6.9-17.6-52-66.3-61.9c-16-3.3-30.6-1-36,25.3c-5.8,28.4,58.4,56.3,52.1,87.3
		c-1.1,5.5-9.7,7.1-14.9,6c-11.9-2.4-31.5-32.5-58.5-38c-20-4.1-23.1,3.7-25.2,14.1c-9.2,45.1,88.4,61.5,79.4,105.8
		c-1.7,8.3-5.5,8.2-9.9,7.3c-19.6-4-38.2-32.4-74.9-39.9c-4.6-0.9-17.4-5.4-21.4,14c-4.8,23.6,56.6,56.7,49.8,89.9
		c-1.3,6.5,57.4,25.1,44.2,22.4c-28-5.7-94.5,78.5-64.9,84.6c99.2,20.2,99.3-135.4,128.9-236.1C423.2,152,488.6,124.2,546.7,128.8z"
		/>
	<g>
		<path class="st61" d="M293.4,448.8C242,464.5,183,515.3,183,598.8c0,30.9,7.3,70.7,7.3,90.2c0,45.2-47.3,72.2-90,72.2
			c-58.5,0-76.4-54.9-76.4-91.5c0-105.9,157.2-254.9,236.8-254.9c17,0,45,5.1,45,22.2c0,5.5-2.5,10.7-8.6,12.6
			C295.6,449.5,294.9,449.5,293.4,448.8z"/>
		<path class="st61" d="M742.2,431.6c157.9,24.4,226,231,226,268.1c0,44.5-38.1,84.4-97.2,84.4c-35.8,0-61.8-34.6-61.8-53.4
			c0-15.2,27.6-70,27.6-110.1c0-83.6-95-94.6-95-180.2C741.8,437.4,741.9,434.5,742.2,431.6z"/>
		<path class="st61" d="M769.9,488.9c6.8,167.8-157.1,284.9-318.1,261.5c-23.4-2.9-43.9-8.8-64.4-17.6
			c-14.6-8.8-29.3-14.6-43.9-23.4c-32.2-20.5-49.8-49.8-70.3-82c-14.6-23.4-23.4-49.8-26.3-76.1c-5.9-43.9-5.9-87.8,3.5-132.5
			c4.7-22.7,11.7-44.8,20.5-66c70.8-169.9,165.6-261.4,348.3-249.7c23.4,0,38.1,26.3,41,49.8c0,93.7,72.6-19.9,101.4,253.7
			C764.5,434.2,769.9,461.1,769.9,488.9z"/>
		<path class="st61" d="M401.1,701.6c0.7,19.2,1.8,39.5,1.8,60c0,61.9-9.9,124.9-69.1,159.6c-10.8,6.3-20.7,16.5-20.7,28.8
			c0,24.3,60.4,29.5,84.3,29.5c49.1,0,112.5-5.4,112.5-52.6c0-31.1-48.1-27.5-48.1-111.2c0-35.1,10.3-83.1,10.3-101.2
			c0-21.1-21.4-30.4-40-30.4c-16.5,0-32.5,8.2-32.5,14.9C399.5,699.9,399.9,700.8,401.1,701.6z"/>
		<path class="st61" d="M616,722.1c-0.7,19.2-1.8,39.5-1.8,60c0,61.9,9.9,124.9,69.1,159.6c10.8,6.3,20.7,16.5,20.7,28.8
			c0,24.3-60.4,29.5-84.3,29.5c-49.1,0-112.5-5.4-112.5-52.6c0-31.1,48.1-27.5,48.1-111.2c0-35.1-10.3-83.1-10.3-101.2
			c0-21.1,21.4-30.4,40-30.4c16.5,0,32.5,8.2,32.5,14.9C617.6,720.4,617.2,721.3,616,722.1z"/>
	</g>
	<g>
		<g>
			<path class="st1" d="M498.1,636.5c-21.8,0-34.2-3.4-40-10.9c-6.4-8.3-3.5-19.5-0.4-31.4c2-7.9,4.4-16.8,4.4-25.8
				c0-8.4-1.4-16.3-2.7-24c-2.4-13.6-4.4-25.3,2.8-33.8c6-7.2,17.1-10.4,36.1-10.4c17.4,0,28.3,3.2,34.3,10.1
				c7.6,8.7,5.9,21,3.9,35.3c-1,7.3-2.1,14.8-2.1,22.8c0,7.5,0.8,14.7,1.6,21.7c1.7,14.9,3.2,27.7-4.8,36.6
				C525,633.4,514.5,636.5,498.1,636.5z"/>
			<g>
				<path class="st4" d="M498.1,505c51.2,0,31.3,28.4,31.3,63.4c0,35,17.2,63.4-31.3,63.4c-62.6,0-31.3-28.4-31.3-63.4
					C466.7,533.4,443.4,505,498.1,505 M498.1,495.5c-20.4,0-32.7,3.7-39.7,12.1c-8.6,10.2-6.3,23.6-3.8,37.7
					c1.3,7.5,2.7,15.2,2.7,23.1c0,8.5-2.1,16.7-4.2,24.6c-3.2,12.5-6.6,25.4,1.3,35.5c6.9,9,20,12.8,43.8,12.8
					c17.9,0,29.5-3.7,36.5-11.5c9.3-10.5,7.7-25,5.9-40.3c-0.8-6.8-1.6-13.9-1.6-21.1c0-7.6,1-15,2-22.1c2.1-14.7,4-28.7-5-39
					C529,499.2,516.9,495.5,498.1,495.5L498.1,495.5z"/>
			</g>
		</g>
		<g>
			<path class="st1" d="M368.1,548.3c0,8.5-15.8,15.5-35.2,15.5c-19.5,0-35.2-6.9-35.2-15.5c0-8.6,15.8-15.5,35.2-15.5
				C352.3,532.8,368.1,539.7,368.1,548.3z"/>
			<path class="st1" d="M688.3,548.3c0,8.5-15.8,15.5-35.3,15.5c-19.5,0-35.2-6.9-35.2-15.5c0-8.6,15.8-15.5,35.2-15.5
				C672.6,532.8,688.3,539.7,688.3,548.3z"/>
		</g>
		<path class="st62" d="M343.8,351.6c0,0-34.9-7.1-43.6,28"/>
		<path class="st62" d="M636.5,351.6c0,0,34.8-7.1,43.6,28"/>
		<g>
			<path class="st5" d="M363.8,413.6c-33.3-13.5-61.3,37.4-58.2,64.4c4.2,34.3,58.2,49.9,79,22.9c42.6-52-30.1-126.8-69.6-57.2
				c-14.5,27-4.2,46.8,20.8,60.3c36.4,20.8,54-9.4,50.9-44.7c-3.1-35.3-37.4-54-59.2-23.9c-22.9,29.1-19.7,58.2,18.7,68.6
				c15.6,5.2,28.1,1,34.3-14.6"/>
			<g>
				<path class="st4" d="M364.8,409.9c-6-2.4-12.6-3-18.9-1.6c-6.2,1.3-11.8,4.4-16.7,8.3c-10.4,8.2-17.8,20.2-22.6,32.4
					c-4.3,11-7.1,24-3.7,35.6c3.4,11.8,12.4,21.2,23.1,26.9c11,5.9,23.7,8.3,36.1,6.4c5.8-0.9,11.5-2.9,16.3-6.1
					c5.5-3.6,9.7-8.6,13.3-14.1c6.9-10.5,10.5-23.2,9.5-35.7c-0.9-11.6-5.2-22.7-12.4-31.8c-6.4-8.2-15.3-14.8-25.5-17.3
					c-10.9-2.7-22.2-0.4-31.5,5.8c-5.9,3.9-10.7,9-14.9,14.7c-4.9,6.7-8.9,14.2-11.1,22.2c-1.9,7-2.2,14.5-0.2,21.6
					c2,6.9,6,13,11,18c5.7,5.7,12.6,10.1,19.7,13.8c6.7,3.4,14.1,6,21.7,5.9c6.2-0.1,12.1-2.1,17-5.9c4.8-3.7,8.3-8.8,10.7-14.3
					c2.9-6.6,4.3-13.6,4.9-20.8c0.6-7.6,0.3-15.5-1.4-23c-2.9-13-11-26-23.6-31.6c-5.9-2.6-12.3-3.5-18.7-2.2
					c-6.8,1.3-12.9,5.3-17.7,10.1c-1.3,1.3-2.5,2.8-3.7,4.3c-0.4,0.6-0.9,1.1-1.3,1.7c0.4-0.5,0,0-0.1,0.1c-0.3,0.4-0.6,0.7-0.8,1.1
					c-0.6,0.8-1.3,1.7-1.9,2.6c-2.2,3.1-4.3,6.4-6.1,9.9c-3.2,6.3-5.5,13.1-6.1,20.2c-0.5,6.3,0.6,12.6,3.5,18.3
					c3,5.9,7.8,10.7,13.3,14.3c6.8,4.5,14.7,7.3,22.5,9.2c7.2,1.8,15,1.8,21.8-1.6c6.8-3.4,11.1-9.9,13.9-16.7
					c0.8-1.9-0.8-4.4-2.7-4.8c-2.3-0.5-4,0.7-4.8,2.7c-0.3,0.7-0.1,0.3,0,0.1c-0.1,0.2-0.2,0.4-0.3,0.7c-0.2,0.4-0.4,0.8-0.5,1.1
					c-0.4,0.9-0.9,1.7-1.4,2.6c-0.4,0.7-0.8,1.3-1.3,1.9c-0.4,0.6-0.1,0.1,0,0c-0.1,0.2-0.3,0.3-0.4,0.5c-0.3,0.4-0.6,0.7-0.9,1
					c-0.5,0.6-1,1.1-1.6,1.6c-0.3,0.2-0.5,0.4-0.8,0.7c-0.4,0.4,0.6-0.4,0.1-0.1c-0.2,0.1-0.4,0.3-0.6,0.4c-0.6,0.4-1.2,0.8-1.8,1.1
					c-0.3,0.2-0.6,0.3-0.9,0.5c-0.2,0.1-0.3,0.2-0.5,0.2c-0.7,0.3,0.5-0.2,0,0c-1.4,0.5-2.8,1-4.3,1.2c-0.2,0-1.5,0.1-0.4,0.1
					c-0.3,0-0.7,0.1-1,0.1c-0.9,0.1-1.7,0.1-2.6,0.1c-0.7,0-1.5-0.1-2.2-0.1c-0.2,0-1.5-0.2-0.6-0.1c-0.4-0.1-0.9-0.1-1.3-0.2
					c-1.8-0.3-3.7-0.8-5.5-1.4c-1.9-0.6-3.9-1.1-5.8-1.8c-0.9-0.3-1.8-0.6-2.7-1c-0.5-0.2-0.9-0.4-1.4-0.5c0.6,0.3-0.5-0.2-0.7-0.3
					c-3.1-1.4-6.1-3.1-8.9-5.1c-0.2-0.2-1.1-0.8-0.4-0.3c-0.3-0.2-0.6-0.5-0.9-0.8c-0.6-0.5-1.2-1-1.7-1.5c-1.1-1-2-2.1-2.9-3.2
					c-0.6-0.8,0.3,0.4-0.1-0.2c-0.2-0.3-0.4-0.6-0.6-0.9c-0.4-0.6-0.8-1.2-1.1-1.8c-0.3-0.6-0.6-1.1-0.9-1.7
					c-0.1-0.3-0.3-0.5-0.4-0.8c-0.1-0.2-0.1-0.3-0.2-0.5c-0.4-0.8,0.2,0.6,0,0.1c-0.5-1.3-0.9-2.5-1.2-3.8c-0.2-0.7-0.3-1.3-0.4-2
					c-0.1-0.3-0.1-0.6-0.1-0.9c-0.1-0.5,0.1,0.8,0,0.3c0-0.2-0.1-0.4-0.1-0.7c-0.1-1.4-0.2-2.7-0.1-4.1c0-0.7,0.1-1.4,0.1-2
					c0-0.4,0.1-0.7,0.1-1.1c0-0.1,0-0.3,0-0.4c0-0.5-0.1,0.8,0,0.1c0.5-3,1.2-6,2.3-8.8c0.3-0.8,0.6-1.6,0.9-2.3
					c-0.3,0.7,0.1-0.1,0.2-0.4c0.2-0.4,0.4-0.9,0.6-1.3c0.7-1.6,1.5-3.1,2.4-4.6c1.8-3.2,3.9-6.3,6.2-9.3c0.1-0.1,0.5-0.7,0.3-0.4
					c-0.3,0.4,0.6-0.8,0.5-0.6c0.3-0.4,0.6-0.9,1-1.3c-0.4,0.5,0.4-0.5,0.5-0.6c0.3-0.4,0.6-0.7,0.9-1.1c1.2-1.4,2.4-2.6,3.8-3.8
					c0.3-0.2,0.6-0.5,0.8-0.7c0.1-0.1,1.1-0.8,0.7-0.6c-0.3,0.3,0.4-0.3,0.6-0.4c0.4-0.3,0.7-0.5,1.1-0.8c1.2-0.8,2.6-1.6,3.9-2.2
					c0.3-0.1,1.3-0.5,0.3-0.2c0.3-0.1,0.6-0.2,0.9-0.3c0.7-0.2,1.4-0.5,2.1-0.7c0.6-0.2,1.3-0.3,1.9-0.5c0.3-0.1,0.7-0.1,1-0.2
					c0.6-0.1-0.2,0.1-0.3,0c0,0,0.5-0.1,0.5-0.1c1.4-0.1,2.7-0.2,4.1-0.1c0.5,0,1.3,0.3,1.8,0.2c-0.6,0.1-0.7-0.1-0.3,0
					c0.2,0,0.3,0.1,0.5,0.1c0.4,0.1,0.8,0.1,1.1,0.2c1.3,0.3,2.6,0.7,3.8,1.1c0.3,0.1,1.3,0.6,0.3,0.1c0.3,0.1,0.6,0.2,0.8,0.4
					c0.6,0.3,1.3,0.6,1.9,1c1.2,0.7,2.3,1.5,3.5,2.3c0.6,0.4-0.1,0-0.1-0.1c0.1,0.1,0.3,0.2,0.4,0.3c0.3,0.2,0.6,0.5,0.8,0.7
					c0.6,0.5,1.1,1,1.6,1.5c1.1,1,2.1,2.1,3,3.3c0.2,0.3,0.7,0.9,0.2,0.2c0.2,0.3,0.5,0.6,0.7,0.9c0.5,0.6,0.9,1.3,1.3,2
					c0.9,1.3,1.6,2.7,2.3,4.1c0.4,0.7,0.7,1.4,1,2.1c0.3,0.7,0,0.1,0-0.1c0.1,0.2,0.2,0.4,0.2,0.6c0.2,0.4,0.3,0.8,0.5,1.2
					c1.2,3.3,2.1,6.8,2.6,10.2c0,0.2,0.2,1.3,0.1,0.5c0.1,0.5,0.1,0.9,0.2,1.4c0.1,0.9,0.2,1.9,0.2,2.8c0.1,1.8,0.2,3.5,0.2,5.3
					c0,3.5-0.2,6.9-0.6,10.3c-0.1,0.7,0.1-0.6-0.1,0.4c-0.1,0.4-0.1,0.7-0.2,1.1c-0.1,0.9-0.3,1.7-0.5,2.6c-0.3,1.5-0.7,3-1.1,4.5
					c-0.4,1.4-0.9,2.9-1.4,4.3c-0.1,0.3-0.2,0.6-0.4,0.9c-0.3,0.7,0-0.1,0.1-0.2c-0.1,0.2-0.1,0.3-0.2,0.5c-0.3,0.7-0.6,1.3-0.9,2
					c-0.6,1.3-1.4,2.5-2.1,3.7c-0.3,0.5-0.7,1-1,1.5c-0.4,0.5,0.1-0.1,0.1-0.2c-0.1,0.1-0.2,0.3-0.3,0.4c-0.2,0.3-0.5,0.6-0.7,0.9
					c-0.8,1-1.7,1.9-2.7,2.7c-0.2,0.2-0.5,0.4-0.7,0.6c-0.5,0.4,0.7-0.5-0.1,0.1c-0.5,0.4-1.1,0.7-1.6,1.1c-0.5,0.3-1,0.6-1.6,0.9
					c-0.3,0.1-0.6,0.3-0.9,0.4c-0.1,0.1-0.2,0.1-0.3,0.2c-0.6,0.3-0.1,0.1,0.1-0.1c-0.4,0.3-1.3,0.5-1.7,0.6c-0.7,0.2-1.4,0.4-2,0.5
					c-0.3,0.1-1.6,0.1-1.8,0.3c0.1-0.1,0.9-0.1,0.3,0c-0.2,0-0.3,0-0.5,0.1c-0.4,0-0.8,0.1-1.2,0.1c-1.4,0.1-2.9,0-4.3-0.1
					c-0.2,0-1.2-0.1-0.6-0.1c0.6,0.1-0.7-0.1-0.8-0.1c-0.8-0.1-1.6-0.3-2.4-0.5c-1.7-0.4-3.3-0.9-4.9-1.5c-0.4-0.2-0.9-0.3-1.3-0.5
					c-0.2-0.1-0.4-0.2-0.7-0.3c0.1,0,0.5,0.2,0.1,0c-1-0.4-1.9-0.9-2.9-1.3c-1.8-0.9-3.6-1.9-5.4-2.9c-1.7-0.9-3.3-1.9-4.9-3
					c-0.7-0.5-1.5-1-2.2-1.5c-0.3-0.2-0.7-0.5-1-0.7c-0.2-0.1-0.4-0.3-0.6-0.4c0.4,0.3,0.1,0.1-0.2-0.1c-2.7-2.1-5.2-4.5-7.4-7.1
					c-0.2-0.3-0.5-0.6-0.7-0.8c-0.6-0.8,0.2,0.3-0.2-0.3c-0.5-0.7-1-1.3-1.4-2c-0.9-1.3-1.7-2.7-2.4-4.1c-0.1-0.3-0.3-0.6-0.4-0.9
					c-0.4-0.9,0.2,0.5-0.2-0.4c-0.3-0.7-0.6-1.5-0.8-2.2c-0.5-1.4-0.8-2.9-1.1-4.4c0-0.2-0.2-1.5-0.1-0.4c0-0.3-0.1-0.7-0.1-1
					c-0.1-0.9-0.1-1.7-0.1-2.6c0-1.6,0-3.1,0.2-4.7c0-0.2,0.1-0.4,0.1-0.6c-0.1,0.8,0,0.3,0,0.1c0.1-0.4,0.1-0.9,0.2-1.3
					c0.2-0.9,0.4-1.8,0.6-2.6c0.4-1.8,1-3.5,1.6-5.3c0.1-0.4,0.3-0.8,0.5-1.2c0-0.1,0.6-1.4,0.3-0.8c0.4-1,0.9-1.9,1.3-2.9
					c0.9-1.8,1.9-3.6,2.9-5.3c1-1.6,2-3.1,3-4.6c0.5-0.7,1.1-1.5,1.6-2.2c-0.4,0.6,0.2-0.2,0.3-0.4c0.3-0.4,0.6-0.8,0.9-1.1
					c2-2.4,4.2-4.6,6.6-6.7c0.5-0.5,1.1-0.9,1.6-1.3c0.4-0.3-0.6,0.4-0.1,0.1c0.1-0.1,0.2-0.2,0.3-0.2c0.3-0.2,0.7-0.5,1-0.7
					c1.1-0.8,2.2-1.5,3.4-2.2c1.2-0.7,2.4-1.2,3.6-1.8c0.6-0.3-0.7,0.3,0.1,0c0.3-0.1,0.6-0.2,0.9-0.3c0.6-0.2,1.2-0.4,1.8-0.6
					c1.1-0.4,2.3-0.7,3.5-0.9c0.6-0.1,1.1-0.2,1.7-0.3c0.9-0.2-0.7,0.1,0,0c0.3,0,0.7-0.1,1-0.1c2.3-0.2,4.6-0.1,7,0.1
					c0.7,0.1-0.9-0.1-0.1,0c0.3,0,0.6,0.1,0.9,0.1c0.6,0.1,1.2,0.2,1.7,0.3c1.1,0.3,2.2,0.6,3.3,0.9c0.5,0.2,1,0.4,1.6,0.6
					c0.2,0.1,0.5,0.2,0.7,0.3c1,0.4-0.6-0.3,0.2,0.1c1.1,0.5,2.1,1,3.1,1.5c1.1,0.6,2.1,1.2,3.1,1.9c0.4,0.3,0.9,0.6,1.3,0.9
					c0.2,0.2,0.5,0.4,0.7,0.5c0.1,0.1,0.2,0.2,0.4,0.3c0.6,0.4-0.5-0.4-0.2-0.1c1.9,1.5,3.6,3.1,5.3,4.8c0.8,0.9,1.6,1.8,2.4,2.7
					c0.2,0.2,0.4,0.5,0.6,0.7c0.2,0.2,0.5,0.5-0.2-0.2c0.1,0.1,0.2,0.3,0.3,0.4c0.4,0.5,0.8,1,1.1,1.5c1.4,2.1,2.7,4.2,3.9,6.4
					c0.3,0.5,0.5,1.1,0.8,1.6c0.1,0.3,0.2,0.5,0.4,0.8c0.1,0.2,0.5,1.2,0.3,0.7c-0.2-0.6,0.2,0.4,0.2,0.6c0.1,0.3,0.2,0.5,0.3,0.8
					c0.2,0.6,0.5,1.2,0.7,1.9c0.8,2.5,1.5,5,2,7.6c0.1,0.6,0.2,1.2,0.3,1.9c0,0.1,0,0.4,0.1,0.5c0,0-0.1-0.8-0.1-0.4
					c0,0.4,0.1,0.8,0.1,1.1c0.1,1.3,0.2,2.6,0.3,4c0,1.3,0,2.7,0,4c0,0.7-0.1,1.3-0.1,2c0,0.4,0,2-0.2,2.2c0,0,0.1-0.8,0.1-0.4
					c0,0.2-0.1,0.4-0.1,0.5c0,0.3-0.1,0.6-0.1,0.9c-0.1,0.7-0.3,1.5-0.4,2.2c-0.3,1.4-0.6,2.7-1,4.1c-0.4,1.4-0.9,2.7-1.4,4.1
					c-0.1,0.3-0.2,0.6-0.4,0.9c-0.3,0.7,0,0,0.1-0.1c-0.1,0.2-0.2,0.3-0.2,0.5c-0.3,0.7-0.6,1.4-1,2.1c-1.4,2.8-3,5.5-4.9,8.1
					c-0.2,0.3-0.4,0.6-0.6,0.9c-0.1,0.1-0.9,1.2-0.3,0.5c-0.5,0.6-1,1.3-1.5,1.9c-0.8,1-1.8,2-2.7,3c-0.5,0.4-0.9,0.9-1.4,1.3
					c-0.3,0.2-0.5,0.4-0.8,0.7c-0.1,0.1-0.2,0.2-0.3,0.2c-0.4,0.3,0.7-0.5,0.1-0.1c-1.1,0.8-2.2,1.5-3.4,2.2
					c-1.1,0.7-2.3,1.2-3.5,1.8c-0.4,0.2,0.3-0.2,0.3-0.1c0,0-0.4,0.2-0.5,0.2c-0.3,0.1-0.6,0.2-0.9,0.4c-0.6,0.2-1.3,0.5-1.9,0.7
					c-1.3,0.4-2.5,0.7-3.8,1c-0.6,0.1-1.3,0.3-1.9,0.4c-0.1,0-1,0.1-1,0.2c0,0,0.8-0.1,0.4-0.1c-0.2,0-0.4,0.1-0.6,0.1
					c-2.7,0.3-5.5,0.4-8.3,0.2c-0.7,0-1.3-0.1-2-0.2c-0.3,0-0.6-0.1-0.9-0.1c-0.2,0-0.4,0-0.5-0.1c-0.4,0-0.6,0.1,0.1,0
					c-0.5,0.1-1.4-0.2-2-0.3c-0.7-0.1-1.4-0.3-2.1-0.4c-2.8-0.6-5.5-1.4-8.1-2.4c-0.3-0.1-0.6-0.2-0.9-0.3c-0.4-0.2-0.9-0.4-0.2-0.1
					c-0.7-0.3-1.3-0.6-2-0.9c-1.3-0.6-2.6-1.3-3.8-2c-1.2-0.7-2.4-1.4-3.5-2.2c-0.5-0.4-1.1-0.8-1.6-1.2c-0.1-0.1-0.3-0.2-0.4-0.3
					c0.1,0.1,0.7,0.6,0.2,0.1c-0.3-0.2-0.5-0.4-0.8-0.7c-2.1-1.7-4-3.6-5.7-5.7c-0.2-0.3-0.4-0.5-0.7-0.8c-0.1-0.2-0.4-0.6,0.1,0.2
					c-0.1-0.1-0.2-0.3-0.3-0.4c-0.4-0.6-0.8-1.1-1.2-1.7c-0.7-1.1-1.4-2.3-2-3.4c-0.3-0.6-0.6-1.2-0.8-1.7c-0.1-0.2-0.1-0.3-0.2-0.5
					c0,0.1,0.3,0.8,0.1,0.2c-0.1-0.3-0.3-0.6-0.4-1c-0.5-1.3-0.9-2.6-1.2-3.9c-0.2-0.6-0.3-1.3-0.4-1.9c-0.1-0.3-0.1-0.7-0.2-1.1
					c0-0.2-0.2-0.7,0,0.2c0-0.2,0-0.3-0.1-0.5c-0.1-1.2-0.2-2.5-0.2-3.7c0-1.3,0-2.5,0.1-3.8c0-0.6,0.1-1.3,0.2-1.9
					c0-0.1,0.1-1,0.1-1c0,0-0.1,0.8-0.1,0.4c0-0.2,0.1-0.4,0.1-0.7c0.9-5.8,2.6-11.5,4.8-17c0.1-0.3,0.3-0.6,0.4-1
					c-0.4,0.9,0.1-0.3,0.2-0.4c0.3-0.7,0.7-1.5,1-2.2c0.7-1.4,1.4-2.8,2.1-4.1c1.5-2.8,3.1-5.5,5-8c0.4-0.6,0.9-1.2,1.3-1.8
					c0.2-0.3,0.7-0.9,0.2-0.3c0.3-0.3,0.5-0.7,0.8-1c0.9-1.2,1.9-2.3,3-3.4c2-2.1,4.1-4.1,6.4-5.9c-0.8,0.6,0.1-0.1,0.3-0.2
					c0.3-0.2,0.6-0.4,0.9-0.6c0.6-0.4,1.2-0.8,1.8-1.2c1.2-0.7,2.4-1.4,3.6-2c0.3-0.1,0.6-0.3,0.8-0.4c0.2-0.1,0.3-0.1,0.5-0.2
					c-0.1,0-0.8,0.3-0.2,0.1c0.6-0.3,1.3-0.5,1.9-0.7c1.3-0.4,2.6-0.8,3.9-1c0.3-0.1,0.7-0.1,1-0.2c0.9-0.2-0.6,0.1,0.1,0
					c0.6-0.1,1.3-0.1,1.9-0.2c1.3-0.1,2.6,0,3.9,0.1c0.2,0,0.7,0,0.9,0.1c-0.5-0.2-0.7-0.1-0.2,0c0.2,0,0.4,0.1,0.5,0.1
					c0.7,0.1,1.3,0.3,2,0.4c1.4,0.4,2.8,0.8,4.2,1.4c1.9,0.8,4.4-0.8,4.8-2.7C368,412.4,366.8,410.7,364.8,409.9L364.8,409.9z"/>
			</g>
		</g>
		<g>
			<path class="st5" d="M620.5,413.6c33.3-13.5,61.3,37.4,58.2,64.4c-4.2,34.3-58.2,49.9-79,22.9c-42.6-52,30.1-126.8,69.6-57.2
				c14.6,27,4.2,46.8-20.8,60.3c-36.4,20.8-54-9.4-50.9-44.7c3.1-35.3,37.4-54,59.2-23.9c22.9,29.1,19.7,58.2-18.7,68.6
				c-15.6,5.2-28.1,1-34.3-14.6"/>
			<g>
				<path class="st4" d="M621.5,417.4c1.4-0.6,2.9-1,4.3-1.4c0.6-0.2,1.2-0.3,1.9-0.4c0.2,0,0.4-0.1,0.5-0.1c0.7-0.1-0.2,0-0.2,0
					c0.3-0.1,0.9-0.1,1.2-0.1c1.3-0.1,2.7-0.1,4,0c0.3,0,0.6,0,0.9,0.1c0.1,0,1.3,0.1,0.6,0.1c-0.6-0.1,0.3,0.1,0.5,0.1
					c0.4,0.1,0.8,0.1,1.1,0.2c1.3,0.3,2.6,0.6,3.8,1.1c0.3,0.1,0.7,0.2,1,0.4c0.2,0.1,1,0.5,0.5,0.2c-0.6-0.3,0.5,0.2,0.6,0.3
					c0.4,0.2,0.7,0.3,1.1,0.5c1.2,0.6,2.3,1.3,3.5,2c0.6,0.4,1.2,0.8,1.8,1.2c0.3,0.2,0.5,0.4,0.8,0.6c0.1,0.1,0.6,0.4,0.2,0.1
					c-0.5-0.4,0.2,0.2,0.3,0.2c2.3,1.8,4.4,3.9,6.4,6c1,1.2,2.1,2.3,3,3.6c0.1,0.1,0.2,0.2,0.3,0.3c0.3,0.4-0.4-0.5-0.1-0.1
					c0.2,0.3,0.4,0.6,0.6,0.8c0.5,0.6,0.9,1.3,1.4,1.9c1.8,2.6,3.4,5.3,4.9,8.1c0.7,1.4,1.4,2.8,2.1,4.2c0.3,0.7,0.6,1.4,0.9,2
					c0.4,0.9-0.1-0.4,0.1,0.3c0.2,0.4,0.3,0.8,0.5,1.2c2.2,5.5,3.8,11.1,4.6,16.9c0.1,0.6-0.1-0.2,0-0.3c0,0,0.1,0.6,0.1,0.5
					c0,0.3,0.1,0.6,0.1,0.9c0.1,0.7,0.1,1.3,0.2,2c0.1,1.3,0.1,2.5,0.1,3.8c0,1.2,0.1,2.6-0.3,3.7c0.2-0.7,0-0.3,0,0.2
					c-0.1,0.3-0.1,0.7-0.2,1c-0.1,0.7-0.3,1.4-0.5,2.1c-0.3,1.3-0.8,2.6-1.2,3.8c-0.1,0.3-0.6,1.3-0.1,0.3c-0.1,0.3-0.2,0.6-0.4,0.8
					c-0.3,0.6-0.6,1.2-0.9,1.8c-0.6,1.2-1.3,2.3-2.1,3.4c-0.4,0.6-0.8,1.1-1.2,1.7c0.4-0.6,0.2-0.2-0.1,0.1
					c-0.2,0.3-0.5,0.6-0.7,0.9c-1.8,2-3.7,3.9-5.8,5.6c-0.2,0.2-1.1,0.8-0.2,0.2c-0.2,0.2-0.5,0.4-0.7,0.6c-0.6,0.4-1.1,0.8-1.7,1.2
					c-1.1,0.8-2.3,1.5-3.5,2.2c-1.2,0.7-2.5,1.4-3.8,2c-0.3,0.1-0.6,0.3-0.9,0.4c-0.4,0.2-0.9,0.4-0.2,0.1c-0.7,0.3-1.4,0.6-2.1,0.8
					c-2.6,1-5.3,1.7-8,2.3c-0.7,0.1-1.3,0.3-2,0.4c-0.4,0.1-0.7,0.1-1.1,0.2c-0.1,0-0.4,0.1-0.5,0.1c0.2,0,0.8-0.1,0.2,0
					c-1.4,0.2-2.8,0.3-4.2,0.4c-2.7,0.1-5.4,0-8.1-0.3c-0.6-0.1,0.2-0.1,0.3,0c0,0-0.5-0.1-0.5-0.1c-0.3,0-0.6-0.1-0.9-0.1
					c-0.7-0.1-1.4-0.2-2-0.4c-1.3-0.3-2.6-0.6-3.8-1c-0.6-0.2-1.2-0.4-1.8-0.6c-0.3-0.1-0.6-0.3-0.9-0.4c-0.4-0.2,0.4,0.1,0.3,0.1
					c0,0-0.7-0.3-0.7-0.3c-1.2-0.5-2.3-1.2-3.5-1.8c-0.5-0.3-1.1-0.7-1.6-1c-0.2-0.2-0.5-0.3-0.7-0.5c-0.3-0.2-1.1-0.8-0.3-0.2
					c-1-0.8-2-1.7-3-2.6c-1-1-1.8-2-2.7-3c-0.3-0.3-0.5-0.6-0.8-1c-0.1-0.2-0.3-0.3-0.4-0.5c0,0,0.4,0.5,0.1,0.2
					c-0.5-0.7-1.1-1.4-1.6-2.1c-1.8-2.5-3.3-5.2-4.7-8c-0.3-0.6-0.6-1.3-0.9-2c-0.2-0.5,0.3,0.7,0.1,0.1c-0.1-0.1-0.1-0.3-0.2-0.4
					c-0.2-0.4-0.3-0.8-0.5-1.2c-0.5-1.3-1-2.7-1.4-4.1c-0.4-1.4-0.7-2.8-1-4.2c-0.1-0.6-0.2-1.2-0.3-1.8c-0.1-0.4-0.1-0.7-0.2-1.1
					c-0.1-0.6-0.1,0.1,0,0.2c-0.1-0.1-0.1-0.5-0.1-0.7c-0.3-2.7-0.4-5.4-0.3-8.1c0.1-1.3,0.2-2.6,0.3-4c0-0.2,0-0.3,0.1-0.5
					c0-0.4,0.2-0.4,0,0.3c0.1-0.3,0.1-0.6,0.1-0.9c0.1-0.7,0.2-1.4,0.4-2.1c0.5-2.5,1.2-5,2-7.5c0.2-0.6,0.4-1.2,0.6-1.7
					c0.1-0.3,0.2-0.5,0.3-0.8c0.1-0.1,0.1-0.3,0.2-0.5c-0.2,0.3-0.3,0.7-0.1,0.1c0.5-1.2,1.1-2.3,1.6-3.4c1.2-2.3,2.5-4.4,4-6.5
					c0.3-0.5,0.7-1,1.1-1.4c-0.4,0.5-0.3,0.4,0.1-0.1c0.2-0.3,0.4-0.6,0.7-0.8c0.8-0.9,1.6-1.8,2.4-2.7c0.8-0.9,1.7-1.7,2.6-2.5
					c0.4-0.4,0.9-0.8,1.3-1.1c0.2-0.2,0.5-0.4,0.7-0.6c0.1-0.1,0.2-0.1,0.3-0.2c0.6-0.5-0.7,0.5-0.1,0c1.9-1.4,3.8-2.7,5.9-3.8
					c0.5-0.3,1-0.5,1.5-0.8c0.2-0.1,0.5-0.2,0.7-0.3c0.2-0.1,1.2-0.5,0.6-0.2c-0.6,0.3,0.2-0.1,0.4-0.1c0.3-0.1,0.5-0.2,0.8-0.3
					c0.6-0.2,1.1-0.4,1.7-0.6c1.1-0.4,2.3-0.7,3.4-0.9c0.5-0.1,1-0.2,1.5-0.3c0.3,0,0.6,0,0.9-0.1c0,0-1,0.1-0.4,0.1
					c0.1,0,0.3,0,0.4,0c2.3-0.2,4.7-0.3,7,0c0.2,0,0.6,0,0.8,0.1c-0.6-0.3-0.8-0.1-0.4,0c0.1,0,0.3,0,0.4,0.1
					c0.6,0.1,1.2,0.2,1.8,0.3c1.2,0.3,2.3,0.6,3.5,0.9c0.6,0.2,1.1,0.4,1.7,0.6c0.3,0.1,0.7,0.2,0.9,0.4c-0.1,0-0.9-0.4-0.3-0.1
					c0.1,0.1,0.3,0.1,0.4,0.2c1.2,0.6,2.4,1.2,3.6,1.8c1.2,0.7,2.3,1.4,3.4,2.2c0.3,0.2,0.5,0.4,0.8,0.6c0.6,0.4,0,0-0.1-0.1
					c0.1,0.1,0.3,0.2,0.4,0.3c0.6,0.5,1.2,1,1.7,1.4c2.4,2.1,4.5,4.4,6.5,6.8c0.3,0.3,0.5,0.7,0.8,1c0.1,0.1,0.5,0.6,0,0
					c0.1,0.2,0.3,0.4,0.4,0.5c0.5,0.7,1.1,1.5,1.6,2.2c1.1,1.5,2.1,3.1,3,4.7c1.1,1.7,2,3.5,2.9,5.4c0.9,1.9,1.2,2.7,2,4.9
					c0.6,1.7,1.1,3.5,1.5,5.2c0.2,0.9,0.4,1.7,0.5,2.6c0,0.2,0.2,1.3,0.1,0.8c-0.1-0.5,0,0.2,0,0.3c0,0.3,0.1,0.5,0.1,0.8
					c0.1,1.6,0.2,3.2,0.1,4.8c0,0.8-0.1,1.5-0.2,2.2c0,0.2,0,0.4-0.1,0.6c0,0,0.1-0.7,0-0.3c-0.1,0.4-0.1,0.9-0.2,1.3
					c-0.3,1.5-0.7,2.9-1.2,4.4c-0.2,0.7-0.5,1.4-0.8,2c0.4-0.9-0.1,0.2-0.2,0.4c-0.2,0.4-0.3,0.7-0.5,1.1c-0.7,1.4-1.5,2.8-2.4,4.1
					c-0.4,0.6-0.8,1.2-1.2,1.7c0.5-0.7-0.2,0.2-0.3,0.4c-0.3,0.4-0.6,0.7-0.9,1.1c-1.1,1.2-2.3,2.4-3.5,3.6
					c-0.6,0.6-1.2,1.1-1.9,1.7c-0.3,0.3-0.6,0.5-0.9,0.8c-0.2,0.1-0.4,0.3-0.5,0.4c0,0-0.8,0.6-0.4,0.3c0.4-0.3-0.2,0.2-0.3,0.2
					c-0.2,0.1-0.4,0.3-0.6,0.4c-0.3,0.2-0.7,0.5-1,0.7c-0.8,0.6-1.6,1.1-2.4,1.6c-1.7,1.1-3.4,2.1-5.1,3.1c-1.8,1-3.6,2-5.4,2.9
					c-0.4,0.2-0.8,0.4-1.2,0.6c-0.1,0.1-1.4,0.6-0.7,0.3c-0.9,0.4-1.7,0.7-2.6,1c-1.6,0.6-3.2,1-4.9,1.4c-0.7,0.2-1.5,0.3-2.2,0.4
					c-0.2,0-0.4,0.1-0.6,0.1c0.1,0,0.9-0.1,0.2,0c-0.4,0-0.8,0.1-1.1,0.1c-1.5,0.1-2.9,0.1-4.4,0c-0.3,0-0.6-0.1-0.9-0.1
					c-1-0.1,0.6,0.1-0.1,0c-0.7-0.1-1.4-0.3-2.1-0.4c-0.6-0.1-1.2-0.3-1.8-0.5c-0.3-0.1-0.5-0.2-0.8-0.3c-0.2-0.1-0.3-0.1-0.5-0.2
					c-0.5-0.1,0.8,0.4,0.1,0.1c-1.1-0.5-2.2-1.1-3.3-1.8c-0.5-0.3-1.1-0.6-1.5-1c0,0,0.7,0.6,0.2,0.2c-0.1-0.1-0.3-0.2-0.4-0.3
					c-0.3-0.2-0.5-0.4-0.7-0.6c-1-0.9-1.9-1.9-2.7-2.9c-0.2-0.2-0.4-0.5-0.6-0.7c-0.3-0.4,0.4,0.6,0.1,0.2c-0.1-0.1-0.2-0.2-0.2-0.3
					c-0.4-0.6-0.8-1.2-1.2-1.8c-0.7-1.2-1.4-2.4-2-3.6c-0.3-0.6-0.6-1.3-0.9-1.9c-0.2-0.5,0.3,0.7,0.1,0.2c0-0.1-0.1-0.3-0.2-0.4
					c-0.2-0.4-0.3-0.8-0.5-1.2c-0.5-1.4-1-2.8-1.4-4.3c-0.4-1.6-0.8-3.1-1.1-4.7c-0.1-0.7-0.3-1.4-0.4-2.1c-0.1-0.4-0.1-0.8-0.2-1.2
					c0.1,0.9-0.1-0.4-0.1-0.7c-0.4-3.4-0.5-6.8-0.5-10.2c0-1.8,0.1-3.5,0.2-5.3c0.1-0.9,0.1-1.8,0.2-2.6c0-0.2,0.1-0.5,0.1-0.7
					c0.1-0.6-0.1,0.6,0,0c0.1-0.5,0.2-1,0.2-1.6c0.6-3.4,1.5-6.8,2.7-10c0.1-0.3,0.3-0.7,0.4-1c0.2-0.5-0.3,0.6,0,0.1
					c0.1-0.2,0.2-0.4,0.3-0.6c0.3-0.8,0.7-1.5,1.1-2.3c0.7-1.4,1.5-2.8,2.4-4.1c0.4-0.6,0.8-1.2,1.3-1.8c0.1-0.2,0.2-0.3,0.4-0.5
					c0.3-0.4-0.4,0.5-0.1,0.1c0.3-0.3,0.5-0.7,0.8-1c0.9-1.1,2-2.2,3-3.2c0.5-0.5,1-0.9,1.6-1.4c0.2-0.2,0.5-0.4,0.7-0.6
					c0.4-0.3-0.6,0.4-0.1,0.1c0.2-0.1,0.4-0.3,0.5-0.4c1.1-0.8,2.3-1.5,3.5-2.2c0.6-0.3,1.2-0.6,1.8-0.9c0.2-0.1,0.3-0.1,0.5-0.2
					c-0.1,0-0.8,0.3-0.2,0.1c0.3-0.1,0.6-0.3,1-0.4c1.3-0.5,2.6-0.8,3.9-1.1c0.3-0.1,0.6-0.1,0.9-0.2c1-0.2-0.6,0.1,0.1,0
					c0.7-0.1,1.4-0.1,2-0.2c0.7,0,1.4,0,2,0c0.2,0,2,0.3,2.1,0.2c0,0-1-0.2-0.3,0c0.1,0,0.3,0,0.4,0.1c0.3,0.1,0.7,0.1,1,0.2
					c0.7,0.1,1.4,0.3,2.1,0.5c0.6,0.2,1.3,0.4,1.9,0.7c0.2,0.1,0.3,0.1,0.5,0.2c-0.1,0-0.8-0.4-0.2-0.1c0.3,0.2,0.7,0.3,1,0.5
					c1.4,0.7,2.7,1.5,4,2.4c0.3,0.2,0.6,0.4,0.9,0.6c0.1,0.1,0.2,0.2,0.4,0.3c-0.6-0.5-0.2-0.1-0.1,0c0.7,0.5,1.3,1.1,1.9,1.7
					c1.3,1.2,2.6,2.6,3.8,3.9c0.3,0.3,0.5,0.6,0.8,1c0.1,0.1,0.5,0.7,0.3,0.3c-0.3-0.3,0.2,0.3,0.3,0.3c0.4,0.5,0.8,1,1.2,1.5
					c-0.4-0.5,0,0,0.1,0.1c0.2,0.3,0.4,0.5,0.6,0.8c2.2,3,4.3,6.1,6,9.3c0.8,1.5,1.6,3,2.3,4.6c0.2,0.4,0.4,0.8,0.5,1.2
					c0.1,0.2,0.3,0.7,0-0.1c0.1,0.2,0.2,0.4,0.2,0.6c0.3,0.8,0.6,1.5,0.9,2.3c0.5,1.5,1,2.9,1.3,4.4c0.2,0.7,0.3,1.4,0.5,2.1
					c0.1,0.4,0.1,0.7,0.2,1.1c0.1,0.4,0.2,1.3,0.1,0.4c0.3,2.8,0.4,5.5,0.1,8.3c-0.1,0.8,0-0.3,0-0.3c0,0-0.1,0.5-0.1,0.5
					c-0.1,0.3-0.1,0.7-0.2,1c-0.1,0.7-0.3,1.3-0.5,2c-0.2,0.6-0.4,1.2-0.6,1.8c-0.1,0.3-0.2,0.6-0.3,0.8c-0.1,0.2-0.1,0.3-0.2,0.5
					c-0.3,0.7,0.3-0.5,0-0.1c-0.6,1.2-1.2,2.4-1.9,3.6c-0.4,0.6-0.7,1.1-1.1,1.7c-0.2,0.3-0.4,0.5-0.6,0.8c0.6-0.8-0.1,0.2-0.3,0.4
					c-0.9,1.1-1.9,2.2-3,3.1c-0.6,0.5-1.2,1-1.8,1.5c-0.1,0.1-0.2,0.2-0.4,0.3c-0.4,0.4,0.5-0.4,0.1-0.1c-0.4,0.3-0.7,0.5-1.1,0.8
					c-2.8,2-5.9,3.6-9,5c-0.1,0.1-0.7,0.3-0.1,0c-0.2,0.1-0.5,0.2-0.7,0.3c-0.4,0.2-0.8,0.3-1.2,0.5c-1,0.4-1.9,0.7-2.9,1
					c-1.9,0.6-3.9,1.2-5.8,1.8c-1.8,0.5-3.6,1-5.4,1.3c-0.2,0-0.4,0.1-0.7,0.1c0,0,0.7-0.1,0.2,0c-0.4,0-0.7,0.1-1.1,0.1
					c-0.9,0.1-1.8,0.1-2.7,0.1c-0.8,0-1.5,0-2.3-0.1c-0.2,0-0.4,0-0.6-0.1c0,0,0.8,0.1,0.3,0c-0.4-0.1-0.9-0.1-1.3-0.2
					c-0.7-0.1-1.4-0.3-2.1-0.5c-0.3-0.1-0.6-0.2-0.9-0.3c-0.2-0.1-0.4-0.1-0.5-0.2c-0.9-0.3,0.5,0.3,0,0c-1.3-0.7-2.5-1.3-3.7-2.1
					c-0.8-0.6,0.4,0.3-0.4-0.3c-0.3-0.2-0.5-0.4-0.8-0.7c-0.6-0.5-1.1-1-1.6-1.6c-0.2-0.3-0.5-0.5-0.7-0.8c-0.1-0.2-0.3-0.3-0.4-0.5
					c0.5,0.6,0.1,0.2,0,0c-0.5-0.7-0.9-1.4-1.4-2.1c-0.4-0.7-0.9-1.5-1.3-2.3c-0.2-0.4-0.4-0.9-0.6-1.3c-0.1-0.2-0.2-0.3-0.2-0.5
					c-0.3-0.6,0.3,0.8-0.1-0.3c-0.8-1.9-2.6-3.4-4.8-2.7c-1.8,0.6-3.5,2.8-2.7,4.8c2.9,7,7.4,13.8,14.5,17c7,3.2,14.7,3,22,1.1
					c13.8-3.7,28.8-10.2,35.2-23.9c6-12.6,3-26.7-3.3-38.6c-1.8-3.4-3.9-6.6-6.1-9.7c-0.7-0.9-1.3-1.8-2-2.7
					c0.2,0.2-0.8-1.1-0.5-0.6c0.2,0.3-0.2-0.3-0.3-0.4c-0.5-0.6-0.9-1.2-1.4-1.8c-1.2-1.5-2.5-2.9-3.8-4.3
					c-4.8-4.7-10.9-8.5-17.7-9.7c-6.4-1.1-12.7-0.2-18.6,2.5c-5.9,2.7-10.8,7.3-14.7,12.5c-9,12.1-11.1,28-9.7,42.6
					c1.2,12.9,5.4,26.8,16.3,34.8c11.7,8.6,26.9,5.2,38.7-1.1c13-7,25.9-16.9,29.9-31.8c4.1-15.5-2.7-31.7-11.9-43.9
					c-7.5-9.9-17.7-18.5-30.3-20.5c-10.6-1.6-21.3,1.2-30,7.3c-9.2,6.5-15.9,15.8-19.9,26.3c-4.2,11-4.8,23.3-1.8,34.7
					c1.7,6.3,4.5,12.4,8.2,17.9c3.7,5.4,7.9,10.3,13.4,13.8c10.4,6.5,23.3,7.6,35.1,5.3c11.8-2.3,23.4-8.3,31.3-17.5
					c4-4.7,7.1-10.1,8.7-16c1.6-5.9,1.5-11.8,0.7-17.8c-1.7-12.7-7-25.2-14.3-35.6c-7.2-10.2-17.4-20-30.1-22.4
					c-6.2-1.1-12.5-0.6-18.3,1.8c-1.9,0.8-3.4,2.6-2.7,4.8C617.3,416.5,619.5,418.2,621.5,417.4L621.5,417.4z"/>
			</g>
		</g>
		<line class="st62" x1="311.1" y1="519.7" x2="311.1" y2="603.4"/>
		<line class="st63" x1="327.3" y1="523.7" x2="327.3" y2="588.3"/>
		<line class="st63" x1="343.8" y1="523.7" x2="343.8" y2="588.3"/>
	</g>
</g>
</svg>
