<?xml version="1.0" encoding="utf-8"?>
<!-- Generator: Adobe Illustrator 25.4.1, SVG Export Plug-In . SVG Version: 6.00 Build 0)  -->
<svg version="1.1" id="Layer_1" xmlns="http://www.w3.org/2000/svg" xmlns:xlink="http://www.w3.org/1999/xlink" x="0px" y="0px"
	 viewBox="0 0 1000 1000" style="enable-background:new 0 0 1000 1000;" xml:space="preserve">
<style type="text/css">
	.st0{fill:#B28DC0;}
	.st1{fill:#DA5D80;}
	.st2{fill:none;stroke:#1D1D1B;stroke-width:15.0791;stroke-linecap:round;stroke-linejoin:round;stroke-miterlimit:10;}
	.st3{fill:none;stroke:#1D1D1B;stroke-width:10.5362;stroke-linecap:round;stroke-linejoin:round;stroke-miterlimit:10;}
	.st4{fill:#1D1D1B;}
	.st5{fill:#FFFFFF;}
	.st6{fill:#35A8E0;}
	.st7{fill:none;stroke:#1D1D1B;stroke-width:17.0539;stroke-linecap:round;stroke-linejoin:round;stroke-miterlimit:10;}
	.st8{fill:#00C3B9;}
	.st9{fill:#FFEFE1;}
	.st10{fill:#7BA2FF;}
	.st11{opacity:0.25;}
	.st12{fill:#000072;}
	.st13{opacity:0.7;}
	.st14{opacity:0.5;}
	.st15{opacity:0.25;fill:#000072;}
	.st16{fill:#E6E7E8;}
	.st17{fill:url(#SVGID_1_);}
	.st18{fill:url(#SVGID_00000010277555082625525630000004385112030133934268_);}
	.st19{fill:url(#SVGID_00000022534522048697609760000009037731485547981228_);}
	.st20{fill:url(#SVGID_00000034070272077773506150000005013630439762932371_);}
	.st21{fill:url(#SVGID_00000162322602292130303580000015565406842582361997_);}
	.st22{fill:url(#SVGID_00000016072625744872883880000005450354349376920227_);}
	.st23{fill:url(#SVGID_00000113310741692264747290000016082599704292947629_);}
	.st24{fill:url(#SVGID_00000040555057354205687100000010289027609583722400_);}
	.st25{fill:url(#SVGID_00000147924717851530152210000015361270715150665624_);}
	.st26{fill:url(#SVGID_00000027568618202563145330000013125140962239584665_);}
	.st27{fill:url(#SVGID_00000062890692793133726130000017484976947093852810_);}
	.st28{fill:url(#SVGID_00000004532246890369928560000012034910428414587777_);}
	.st29{fill:url(#SVGID_00000055705283047975315070000002710422028842546592_);}
	.st30{fill:url(#SVGID_00000093147204437597767850000012262761705919351435_);}
	.st31{fill:url(#SVGID_00000018916750864839375360000009950773599576952713_);}
	.st32{fill:url(#SVGID_00000062171976064987405240000012293457587592834952_);}
	.st33{fill:url(#SVGID_00000047037820176821451290000016347311880259475868_);}
	.st34{fill:url(#SVGID_00000068642131129432713650000009434162306398264744_);}
	.st35{fill:#CDCDB9;}
	.st36{fill:#E4E3D0;}
	.st37{fill:url(#SVGID_00000076587287481498496200000007855033341490064052_);}
	.st38{fill:url(#SVGID_00000094604512309842965240000016254073070095550393_);}
	.st39{fill:url(#SVGID_00000181797015560548415820000008666387510582974386_);}
	.st40{fill:url(#SVGID_00000125570207301616421630000009942511740752355715_);}
	.st41{fill:url(#SVGID_00000085940729717908672620000011244296806178318757_);}
	.st42{fill:#505050;}
	.st43{fill:#333333;}
	.st44{opacity:0.7;fill:#505050;}
	.st45{fill:#6C6C6C;}
	.st46{fill:#A6A6A6;}
	.st47{fill:#5C5C5C;}
	.st48{fill:#F22F26;}
	.st49{fill:#A6201A;}
	.st50{opacity:0.4;fill:#849092;}
	.st51{fill:#849092;}
	.st52{fill:#C7CBB2;}
	.st53{fill:#FFCB00;}
	.st54{fill:#FFFD3B;}
	.st55{fill:#F5FD2B;}
	.st56{fill:#C6C6C6;}
	.st57{fill:#EAC307;}
	.st58{fill:#FFD800;}
	.st59{fill:none;stroke:#1D1D1B;stroke-width:8.4098;stroke-linecap:round;stroke-linejoin:round;stroke-miterlimit:10;}
	.st60{fill:none;stroke:#1D1D1B;stroke-width:12.1024;stroke-linecap:round;stroke-linejoin:round;stroke-miterlimit:10;}
	.st61{fill:#72CCDB;}
	.st62{fill:none;stroke:#1D1D1B;stroke-width:8.4619;stroke-linecap:round;stroke-linejoin:round;stroke-miterlimit:10;}
	.st63{fill:none;stroke:#1D1D1B;stroke-width:7.436;stroke-linecap:round;stroke-linejoin:round;stroke-miterlimit:10;}
	.st64{fill:#EF439D;}
	.st65{fill:#ED1C24;}
</style>
<g>
	<path class="st0" d="M287.3,433.6c-38.9-58.3-121.9-160.7-55-211.1c32.3-24.3,66.5,1.8,79.8,35.2c-24.9-44.6-41.8-103.1-1.6-133.3
		c29.3-22.1,75.5,2.8,80.2,21.8c-11-35.6,5.4-70.9,32.4-91.3C473.1,17.2,548,23.1,588.6,77c12.4,16.5,24.2,49.2,5.8,70.9
		c-3.1,3.7-9.4,4-8,3c25.3-19.1,133.7-2.4,186.4,60.4c34.1,40.7,43.1,81.5-0.6,109c-24.4,15.4-73.8,0.2-89.2-8.8
		c22.4,19.6,51.7,40.3,71,65.9c17.8,23.6,32.9,55.9,12,77.1c-60.9,61.7-147.5-103.9-290.2-63C413.3,409.3,352.2,429.3,287.3,433.6z"
		/>
	<g>
		<g>
			<path class="st0" d="M795.6,512.9c-0.5-58.4-22.8-115.1-57.8-162.9l-0.1,0.1c24.5-20,42.4-45.5,42.4-76.5
				c0-21.8-8.2-42.5-21.6-60.3c-18.2,29.7-48.7,50.6-82.5,63.9c13.9-16.2,23.1-35.2,23.1-54.7c0-21.8-9.8-43.2-24.1-61.3
				c-28.4,33.2-68.6,53.9-111.3,67.5c-2-0.7-2.1-0.7-5.6-1.7l5.6,1.7c-2.4,0.8-4.8,1.5-7.2,2.2c13.8-31,1.8-66.5-20.6-92.3
				c-26.7,35-64.3,60.7-104.8,81c-83.8,12.8-161.4,58.9-213.1,125.2c-13,16.7-24.4,34.6-33.9,53.6c-30.4,50.6-35.7,111.1-19.9,169
				c13.2,50,39.5,94.7,84.2,126.3c31.6,23.7,63.2,39.5,100,50c34.2,10.5,68.4,13.2,102.6,18.4C606.4,780.5,801.2,688.4,795.6,512.9z
				"/>
			<path class="st0" d="M411.7,709.5c-40.7,0,26.5,137.1-63.4,195.9c-0.9,0.9-8.1,4.1-8.8,13.4c-1.4,17,3.2,24.1,54,24.1
				c48.7,0,60-13.9,60-84.5c0-48.7-11.1-96.1-20.7-146.4c0-1.9-6.6-3.7-13.2-3.7C416.8,708.4,414,708.7,411.7,709.5z"/>
			<path class="st0" d="M527.5,706.9c-21.6,49.9-46.4,110.4-46.4,166c0,40.5,17.2,98.6,58.5,98.6c22.7,0,49.5-8.7,49.5-31.3
				c0-4.6-0.7-6.2-3.7-9.6c-43.3-41.5-58.1-87.8-58.1-139.2c0-23.6,3.1-48.3,8.1-74C535.4,714.7,527.5,712.1,527.5,706.9z"/>
			<path class="st0" d="M356.8,604.8C301.6,622,258.3,665,244.7,720c-7.7,31.1-2.2,43.7-5.4,56.6c-6,24.2-32.7,43.9-78.4,32.6
				c-48.6-12-63.2-57.5-55-90.7C136.4,594.7,343,583.1,357.7,586.8c8.1,2,18.7,7.2,16.7,15.2c-1.4,5.7-7.7,5.4-13.1,4
				C359.8,605.6,358.3,605.2,356.8,604.8z"/>
			<path class="st0" d="M552.2,628.8c185.9,1.5,304.3,74.2,328.6,117.8c21.3,38.2-5.2,82.7-40.2,102.3c-34.9,19.5-61.1,6.6-77.2-22
				c-13.8-24.6-14-47.1-32.1-79.5c-41.3-74-138.6-48.8-195.2-109.5c-0.7-1.3,2.1-4.6,6.1-6.9C545.2,629.2,548.9,628.1,552.2,628.8z"
				/>
		</g>
		<g>
			<g>
				<path class="st1" d="M320.2,628.6c0,10.6-19.7,19.3-43.9,19.3c-24.2,0-43.9-8.6-43.9-19.3c0-10.6,19.6-19.3,43.9-19.3
					C300.5,609.3,320.2,617.9,320.2,628.6z"/>
				<path class="st1" d="M719,628.6c0,10.6-19.6,19.3-43.9,19.3c-24.2,0-43.9-8.6-43.9-19.3c0-10.6,19.7-19.3,43.9-19.3
					C699.3,609.3,719,617.9,719,628.6z"/>
			</g>
			<g>
				<path class="st3" d="M293.5,402c0,0-43.4-8.8-54.3,34.8"/>
				<path class="st3" d="M657.9,402c0,0,43.4-8.8,54.3,34.8"/>
			</g>
			<g>
				<g>
					<path class="st1" d="M475.7,717.7c-24.6,0-43.9-29.5-43.9-67.3c0-37.7,19.3-67.3,43.9-67.3c24.6,0,43.9,29.5,43.9,67.3
						C519.6,688.2,500.3,717.7,475.7,717.7z"/>
					<path class="st4" d="M475.7,589.1c21,0,38,27.5,38,61.3c0,33.9-17,61.3-38,61.3c-21,0-37.9-27.5-37.9-61.3
						C437.7,616.6,454.7,589.1,475.7,589.1 M475.7,577.3c-27.9,0-49.8,32.1-49.8,73.2c0,41,21.9,73.2,49.8,73.2
						c27.9,0,49.8-32.1,49.8-73.2C525.5,609.4,503.6,577.3,475.7,577.3L475.7,577.3z"/>
				</g>
				<g>
					<g>
						<path class="st5" d="M504.3,616.2c-3.5,0-7.4-0.3-11.6-0.7c-5.2-0.4-11-0.8-16.9-0.8s-11.8,0.4-16.9,0.8
							c-4.2,0.3-8.2,0.6-11.6,0.7c0,0-0.1,0-0.1,0c-2.1,0-4-1.1-5.1-2.8c-1.1-1.8-1.1-4-0.2-5.9c8.3-15.4,20.6-24.3,33.9-24.3
							c13.2,0,25.6,8.8,33.9,24.3c1,1.8,0.9,4.1-0.2,5.9C508.3,615.1,506.4,616.2,504.3,616.2C504.3,616.2,504.3,616.2,504.3,616.2z
							"/>
						<path class="st4" d="M475.7,589.1c11.5,0,21.7,8.2,28.7,21.1c-7.7-0.1-17.8-1.5-28.7-1.5c-10.9,0-20.9,1.4-28.7,1.5
							C454,597.3,464.3,589.1,475.7,589.1 M475.7,577.3c-15.5,0-29.7,10-39.1,27.4c-2,3.7-1.9,8.1,0.3,11.7c2.1,3.5,6,5.7,10.1,5.7
							c0.1,0,0.1,0,0.2,0c3.8-0.1,7.8-0.4,12-0.7c5.3-0.4,10.8-0.8,16.5-0.8c5.7,0,11.2,0.4,16.5,0.8c4.3,0.3,8.3,0.6,12,0.7
							c0.1,0,0.1,0,0.2,0c4.1,0,8-2.2,10.1-5.7c2.2-3.6,2.3-8,0.3-11.7C505.4,587.3,491.2,577.3,475.7,577.3L475.7,577.3z"/>
					</g>
				</g>
			</g>
			<g>
				<rect x="268.2" y="514.8" class="st6" width="65" height="184.6"/>
				<line class="st7" x1="234.3" y1="514.8" x2="355.8" y2="514.8"/>
				<rect x="618.2" y="514.8" class="st6" width="65" height="184.6"/>
				<line class="st7" x1="717.1" y1="514.8" x2="595.6" y2="514.8"/>
			</g>
		</g>
	</g>
</g>
</svg>
